# xmcd
#
# Track frame offsets:
#	150
#	14060
#	26837
#	36775
#	46640
#	57145
#	68175
#	77037
#	89130
#	99487
#	114452
#	124242
#	138040
#	148175
#	162375
#	175892
#	189012
#	202477
#	212855
#	224512
#	234870
#	245425
#	255162
#	266570
#
# Disc length: 3730 seconds
#
# Revision: 5
# Processed by: cddbd v1.5.2PL0 Copyright (c) Steve Scherf et al.
# Submitted via: EZCDAudioConverter 1.0.6.1
#
DISCID=5e0e9018
DTITLE=Slim Harpo - I'm a King Bee
DYEAR=1993
DGENRE=Blues
TTITLE0=I´m A King Bee
TTITLE1=I Got Love If You Want It
TTITLE2=Wonderin´ And Worryin´
TTITLE3=Strange Love
TTITLE4=You´ll Be Sorry One Day
TTITLE5=One More Day
TTITLE6=Bobby Sox Baby
TTITLE7=Late Last Night
TTITLE8=Buzz Me Babe
TTITLE9=Dream Girl
TTITLE10=Yeah Yeah Baby
TTITLE11=What A Dream
TTITLE12=Don´t Start Cryin´ Now
TTITLE13=Blues Hang-Over
TTITLE14=Moody Blues
TTITLE15=My Home Is A Prison
TTITLE16=Please Don´t Turn Me Down
TTITLE17=Snoopin´ Around
TTITLE18=Rainin´ In My Heart
TTITLE19=That´s Alright Baby
TTITLE20=Lover´s Confession
TTITLE21=Buzzin´
TTITLE22=I Love The Life I´m Living
TTITLE23=Boogie Chillun
EXTD=
EXTT0=
EXTT1=
EXTT2=
EXTT3=
EXTT4=
EXTT5=
EXTT6=
EXTT7=
EXTT8=
EXTT9=
EXTT10=
EXTT11=
EXTT12=
EXTT13=
EXTT14=
EXTT15=
EXTT16=
EXTT17=
EXTT18=
EXTT19=
EXTT20=
EXTT21=
EXTT22=
EXTT23=
PLAYORDER=
